<svg height='300px' width='300px'  fill="#FFFFFF" xmlns="http://www.w3.org/2000/svg" viewBox="0 0 32 32" x="0px" y="0px"><title>love</title><g data-name="51-love"><path d="M16,29a1.0027,1.0027,0,0,1-.71-.2949L3.332,16.6709a8.0516,8.0516,0,0,1,0-11.3213A7.8952,7.8952,0,0,1,8.9658,3h.0005a7.8926,7.8926,0,0,1,5.6328,2.35L16,6.76l1.4009-1.41a7.9285,7.9285,0,0,1,11.2671,0,8.0516,8.0516,0,0,1,0,11.3213h0L16.71,28.7051A1.0027,1.0027,0,0,1,16,29ZM8.9658,5A5.9039,5.9039,0,0,0,4.751,6.76a6.0446,6.0446,0,0,0,0,8.5009L16,26.5811l11.249-11.32a6.0446,6.0446,0,0,0,0-8.5009,5.9267,5.9267,0,0,0-8.4292,0l-2.11,2.124a1.0317,1.0317,0,0,1-1.419,0L13.18,6.76A5.9029,5.9029,0,0,0,8.9658,5ZM27.9585,15.9658h0Z"></path></g></svg>